# Blender 3.6.4
# www.blender.org
mtllib estadio_diamond.mtl
o Base
v -28.934912 -2.085333 -15.145108
v -28.742109 -2.085333 -14.782341
v -28.565363 -2.085333 -14.412529
v -28.404808 -2.085333 -14.036208
v -28.260588 -2.085333 -13.653918
v -28.132839 -2.085333 -13.266194
v -28.021702 -2.085333 -12.873575
v -27.927319 -2.085333 -12.476597
v -27.849827 -2.085333 -12.075797
v -27.789368 -2.085333 -11.671714
v -27.746080 -2.085333 -11.264883
v -27.720104 -2.085333 -10.855844
v -27.711578 -2.085333 -10.445130
v -27.711578 -2.085333 -10.221693
v -27.711578 -2.085333 -9.603952
v -27.711578 -2.085333 -8.670770
v -27.711578 -2.085333 -7.501007
v -27.711578 -2.085333 -6.173522
v -27.711578 -2.085333 -4.767176
v -27.711578 -2.085333 -3.360831
v -27.711578 -2.085333 -2.033346
v -27.711578 -2.085333 -0.863582
v -27.711578 -2.085333 0.069600
v -27.711578 -2.085333 0.687340
v -27.711578 -2.085333 0.910781
v -51.398575 -2.085333 0.910781
v -51.398575 -2.085333 -10.445130
v -51.390049 -2.085333 -10.855843
v -51.364075 -2.085333 -11.264882
v -51.320786 -2.085333 -11.671712
v -51.260326 -2.085333 -12.075796
v -51.182835 -2.085333 -12.476595
v -51.088451 -2.085333 -12.873573
v -50.977318 -2.085333 -13.266192
v -50.849567 -2.085333 -13.653916
v -50.705345 -2.085333 -14.036207
v -50.544792 -2.085333 -14.412527
v -50.368046 -2.085333 -14.782341
v -50.175243 -2.085333 -15.145108
v -49.757320 -2.085333 -15.145108
v -48.601887 -2.085333 -15.145108
v -46.856441 -2.085333 -15.145108
v -44.668491 -2.085333 -15.145108
v -42.185535 -2.085333 -15.145108
v -39.555077 -2.085333 -15.145108
v -36.924618 -2.085333 -15.145108
v -34.441662 -2.085333 -15.145108
v -32.253708 -2.085333 -15.145108
v -30.508266 -2.085333 -15.145108
v -29.352829 -2.085333 -15.145108
v -28.934912 0.967231 -15.145108
v -28.742109 0.967231 -14.782341
v -28.565363 0.967231 -14.412529
v -28.404808 0.967231 -14.036208
v -28.260588 0.967231 -13.653918
v -28.132839 0.967231 -13.266194
v -28.021702 0.967231 -12.873575
v -27.927319 0.967231 -12.476597
v -27.849827 0.967231 -12.075797
v -27.789368 0.967231 -11.671714
v -27.746080 0.967231 -11.264883
v -27.720104 0.967231 -10.855844
v -27.711578 0.967231 -10.445130
v -27.711578 0.967231 -10.221693
v -27.711578 0.967231 -9.603952
v -27.711578 0.967231 -8.670770
v -27.711578 0.967231 -7.501007
v -27.711578 0.967231 -6.173522
v -27.711578 0.967231 -4.767176
v -27.711578 0.967231 -3.360831
v -27.711578 0.967231 -2.033346
v -27.711578 0.967231 -0.863582
v -27.711578 0.967231 0.069600
v -27.711578 0.967231 0.687340
v -27.711578 0.967231 0.910781
v -51.398575 0.967231 0.910781
v -51.398575 0.967231 -10.445130
v -51.390049 0.967231 -10.855843
v -51.364075 0.967231 -11.264882
v -51.320786 0.967231 -11.671712
v -51.260326 0.967231 -12.075796
v -51.182835 0.967231 -12.476595
v -51.088451 0.967231 -12.873573
v -50.977318 0.967231 -13.266192
v -50.849567 0.967231 -13.653916
v -50.705345 0.967231 -14.036207
v -50.544792 0.967231 -14.412527
v -50.368046 0.967231 -14.782341
v -50.175243 0.967231 -15.145108
v -49.757320 0.967231 -15.145108
v -48.601887 0.967231 -15.145108
v -46.856441 0.967231 -15.145108
v -44.668491 0.967231 -15.145108
v -42.185535 0.967231 -15.145108
v -39.555077 0.967231 -15.145108
v -36.924618 0.967231 -15.145108
v -34.441662 0.967231 -15.145108
v -32.253708 0.967231 -15.145108
v -30.508266 0.967231 -15.145108
v -29.352829 0.967231 -15.145108
vn -0.0000 -1.0000 -0.0000
vn -0.0000 1.0000 -0.0000
vn 1.0000 -0.0000 -0.0000
vn 0.9729 -0.0000 -0.2313
vn -0.0000 -0.0000 -1.0000
vn 0.9818 -0.0000 -0.1898
vn 0.9890 -0.0000 -0.1480
vn -0.9890 -0.0000 -0.1480
vn 0.9944 -0.0000 -0.1058
vn -0.9818 -0.0000 -0.1898
vn -0.0000 -0.0000 1.0000
vn 0.9980 -0.0000 -0.0634
vn -0.8830 -0.0000 -0.4693
vn -0.9729 -0.0000 -0.2313
vn 0.9998 -0.0000 -0.0208
vn -1.0000 -0.0000 -0.0000
vn -0.9622 -0.0000 -0.2724
vn -0.9198 -0.0000 -0.3924
vn 0.8830 -0.0000 -0.4693
vn -0.9022 -0.0000 -0.4312
vn -0.9498 -0.0000 -0.3129
vn -0.9998 -0.0000 -0.0208
vn 0.9198 -0.0000 -0.3924
vn 0.9356 -0.0000 -0.3530
vn -0.9980 -0.0000 -0.0634
vn -0.9356 -0.0000 -0.3530
vn 0.9498 -0.0000 -0.3129
vn 0.9022 -0.0000 -0.4312
vn 0.9622 -0.0000 -0.2724
vn -0.9944 -0.0000 -0.1058
vt 0.755102 0.000000
vt 0.775510 0.000000
vt 0.795918 0.000000
vt 0.816327 0.000000
vt 0.836735 0.000000
vt 0.857143 0.000000
vt 0.877551 0.000000
vt 0.897959 0.000000
vt 0.918367 0.000000
vt 0.938776 0.000000
vt 0.959184 0.000000
vt 0.979592 0.000000
vt 1.000000 0.000000
vt 0.000000 0.000000
vt 0.020408 0.000000
vt 0.734694 0.000000
vt 0.040816 0.000000
vt 0.061224 0.000000
vt 0.714286 0.000000
vt 0.081633 0.000000
vt 0.693878 0.000000
vt 0.102041 0.000000
vt 0.673469 0.000000
vt 0.122449 0.000000
vt 0.653061 0.000000
vt 0.142857 0.000000
vt 0.632653 0.000000
vt 0.163265 0.000000
vt 0.612245 0.000000
vt 0.183673 0.000000
vt 0.591837 0.000000
vt 0.204082 0.000000
vt 0.571429 0.000000
vt 0.224490 0.000000
vt 0.551020 0.000000
vt 0.244898 0.000000
vt 0.530612 0.000000
vt 0.510204 0.000000
vt 0.265306 0.000000
vt 0.285714 0.000000
vt 0.306122 0.000000
vt 0.326531 0.000000
vt 0.346939 0.000000
vt 0.367347 0.000000
vt 0.387755 0.000000
vt 0.408163 0.000000
vt 0.428571 0.000000
vt 0.448980 0.000000
vt 0.469388 0.000000
vt 0.489796 0.000000
s 0
usemtl SVGMat.001
f 38/1/1 39/2/1 40/3/1
f 38/1/1 40/3/1 41/4/1
f 38/1/1 41/4/1 42/5/1
f 38/1/1 42/5/1 43/6/1
f 38/1/1 43/6/1 44/7/1
f 38/1/1 44/7/1 45/8/1
f 38/1/1 45/8/1 46/9/1
f 38/1/1 46/9/1 47/10/1
f 38/1/1 47/10/1 48/11/1
f 38/1/1 48/11/1 49/12/1
f 38/1/1 49/12/1 50/13/1
f 38/1/1 50/13/1 1/14/1
f 38/1/1 1/14/1 2/15/1
f 37/16/1 38/1/1 2/15/1
f 37/16/1 2/15/1 3/17/1
f 37/16/1 3/17/1 4/18/1
f 36/19/1 37/16/1 4/18/1
f 36/19/1 4/18/1 5/20/1
f 35/21/1 36/19/1 5/20/1
f 35/21/1 5/20/1 6/22/1
f 34/23/1 35/21/1 6/22/1
f 34/23/1 6/22/1 7/24/1
f 33/25/1 34/23/1 7/24/1
f 33/25/1 7/24/1 8/26/1
f 32/27/1 33/25/1 8/26/1
f 32/27/1 8/26/1 9/28/1
f 31/29/1 32/27/1 9/28/1
f 31/29/1 9/28/1 10/30/1
f 30/31/1 31/29/1 10/30/1
f 30/31/1 10/30/1 11/32/1
f 29/33/1 30/31/1 11/32/1
f 29/33/1 11/32/1 12/34/1
f 28/35/1 29/33/1 12/34/1
f 28/35/1 12/34/1 13/36/1
f 27/37/1 28/35/1 13/36/1
f 26/38/1 27/37/1 13/36/1
f 26/38/1 13/36/1 14/39/1
f 26/38/1 14/39/1 15/40/1
f 26/38/1 15/40/1 16/41/1
f 26/38/1 16/41/1 17/42/1
f 26/38/1 17/42/1 18/43/1
f 26/38/1 18/43/1 19/44/1
f 26/38/1 19/44/1 20/45/1
f 26/38/1 20/45/1 21/46/1
f 26/38/1 21/46/1 22/47/1
f 26/38/1 22/47/1 23/48/1
f 26/38/1 23/48/1 24/49/1
f 26/38/1 24/49/1 25/50/1
f 88/1/2 90/3/2 89/2/2
f 88/1/2 91/4/2 90/3/2
f 88/1/2 92/5/2 91/4/2
f 88/1/2 93/6/2 92/5/2
f 88/1/2 94/7/2 93/6/2
f 88/1/2 95/8/2 94/7/2
f 88/1/2 96/9/2 95/8/2
f 88/1/2 97/10/2 96/9/2
f 88/1/2 98/11/2 97/10/2
f 88/1/2 99/12/2 98/11/2
f 88/1/2 100/13/2 99/12/2
f 88/1/2 51/14/2 100/13/2
f 88/1/2 52/15/2 51/14/2
f 87/16/2 52/15/2 88/1/2
f 87/16/2 53/17/2 52/15/2
f 87/16/2 54/18/2 53/17/2
f 86/19/2 54/18/2 87/16/2
f 86/19/2 55/20/2 54/18/2
f 85/21/2 55/20/2 86/19/2
f 85/21/2 56/22/2 55/20/2
f 84/23/2 56/22/2 85/21/2
f 84/23/2 57/24/2 56/22/2
f 83/25/2 57/24/2 84/23/2
f 83/25/2 58/26/2 57/24/2
f 82/27/2 58/26/2 83/25/2
f 82/27/2 59/28/2 58/26/2
f 81/29/2 59/28/2 82/27/2
f 81/29/2 60/30/2 59/28/2
f 80/31/2 60/30/2 81/29/2
f 80/31/2 61/32/2 60/30/2
f 79/33/2 61/32/2 80/31/2
f 79/33/2 62/34/2 61/32/2
f 78/35/2 62/34/2 79/33/2
f 78/35/2 63/36/2 62/34/2
f 77/37/2 63/36/2 78/35/2
f 76/38/2 63/36/2 77/37/2
f 76/38/2 64/39/2 63/36/2
f 76/38/2 65/40/2 64/39/2
f 76/38/2 66/41/2 65/40/2
f 76/38/2 67/42/2 66/41/2
f 76/38/2 68/43/2 67/42/2
f 76/38/2 69/44/2 68/43/2
f 76/38/2 70/45/2 69/44/2
f 76/38/2 71/46/2 70/45/2
f 76/38/2 72/47/2 71/46/2
f 76/38/2 73/48/2 72/47/2
f 76/38/2 74/49/2 73/48/2
f 76/38/2 75/50/2 74/49/2
f 21/46/3 20/45/3 70/45/3 71/46/3
f 8/26/4 7/24/4 57/24/4 58/26/4
f 50/13/5 49/12/5 99/12/5 100/13/5
f 22/47/3 21/46/3 71/46/3 72/47/3
f 9/28/6 8/26/6 58/26/6 59/28/6
f 10/30/7 9/28/7 59/28/7 60/30/7
f 31/29/8 30/31/8 80/31/8 81/29/8
f 23/48/3 22/47/3 72/47/3 73/48/3
f 45/8/5 44/7/5 94/7/5 95/8/5
f 11/32/9 10/30/9 60/30/9 61/32/9
f 32/27/10 31/29/10 81/29/10 82/27/10
f 25/50/3 24/49/3 74/49/3 75/50/3
f 26/38/11 25/50/11 75/50/11 76/38/11
f 12/34/12 11/32/12 61/32/12 62/34/12
f 39/2/13 38/1/13 88/1/13 89/2/13
f 33/25/14 32/27/14 82/27/14 83/25/14
f 20/45/3 19/44/3 69/44/3 70/45/3
f 46/9/5 45/8/5 95/8/5 96/9/5
f 13/36/15 12/34/15 62/34/15 63/36/15
f 40/3/5 39/2/5 89/2/5 90/3/5
f 27/37/16 26/38/16 76/38/16 77/37/16
f 44/7/5 43/6/5 93/6/5 94/7/5
f 14/39/3 13/36/3 63/36/3 64/39/3
f 34/23/17 33/25/17 83/25/17 84/23/17
f 37/16/18 36/19/18 86/19/18 87/16/18
f 15/40/3 14/39/3 64/39/3 65/40/3
f 2/15/19 1/14/19 51/14/19 52/15/19
f 1/14/5 50/13/5 100/13/5 51/14/5
f 43/6/5 42/5/5 92/5/5 93/6/5
f 47/10/5 46/9/5 96/9/5 97/10/5
f 38/1/20 37/16/20 87/16/20 88/1/20
f 42/5/5 41/4/5 91/4/5 92/5/5
f 35/21/21 34/23/21 84/23/21 85/21/21
f 41/4/5 40/3/5 90/3/5 91/4/5
f 28/35/22 27/37/22 77/37/22 78/35/22
f 17/42/3 16/41/3 66/41/3 67/42/3
f 24/49/3 23/48/3 73/48/3 74/49/3
f 4/18/23 3/17/23 53/17/23 54/18/23
f 48/11/5 47/10/5 97/10/5 98/11/5
f 18/43/3 17/42/3 67/42/3 68/43/3
f 16/41/3 15/40/3 65/40/3 66/41/3
f 5/20/24 4/18/24 54/18/24 55/20/24
f 29/33/25 28/35/25 78/35/25 79/33/25
f 19/44/3 18/43/3 68/43/3 69/44/3
f 36/19/26 35/21/26 85/21/26 86/19/26
f 6/22/27 5/20/27 55/20/27 56/22/27
f 49/12/5 48/11/5 98/11/5 99/12/5
f 3/17/28 2/15/28 52/15/28 53/17/28
f 7/24/29 6/22/29 56/22/29 57/24/29
f 30/31/30 29/33/30 79/33/30 80/31/30
