# Blender 3.6.4
# www.blender.org
mtllib estadio_front_stage.mtl
o Plane.001
v -46.854141 1.183612 -8.600937
v -39.632362 1.183612 -8.600937
v -46.854141 1.183612 -15.122568
v -39.632362 1.183612 -15.122568
v -46.854141 0.868424 -15.122568
v -46.854141 0.868424 -8.600937
v -39.632362 0.868424 -8.600937
v -39.632362 0.868424 -15.122568
vn -0.0000 -1.0000 -0.0000
vn -0.0000 1.0000 -0.0000
vn -1.0000 -0.0000 -0.0000
vn 1.0000 -0.0000 -0.0000
vn -0.0000 -0.0000 1.0000
vn -0.0000 -0.0000 -1.0000
vt 0.000000 0.000000
vt 0.000000 1.000000
vt 1.000000 1.000000
vt 1.000000 0.000000
s 0
usemtl SVGMat.007
f 1/1/1 3/2/1 4/3/1 2/4/1
f 6/1/2 7/4/2 8/3/2 5/2/2
f 2/4/3 4/3/3 8/3/3 7/4/3
f 3/2/4 1/1/4 6/1/4 5/2/4
f 4/3/5 3/2/5 5/2/5 8/3/5
f 1/1/6 2/4/6 7/4/6 6/1/6
o Plane.002
v -39.650681 1.183612 -8.600937
v -32.428902 1.183612 -8.600937
v -39.650681 1.183612 -15.122568
v -32.428902 1.183612 -15.122568
v -39.650681 0.868424 -15.122568
v -39.650681 0.868424 -8.600937
v -32.428902 0.868424 -8.600937
v -32.428902 0.868424 -15.122568
vn -0.0000 -1.0000 -0.0000
vn -0.0000 1.0000 -0.0000
vn -1.0000 -0.0000 -0.0000
vn 1.0000 -0.0000 -0.0000
vn -0.0000 -0.0000 1.0000
vn -0.0000 -0.0000 -1.0000
vt 0.000000 0.000000
vt 0.000000 1.000000
vt 1.000000 1.000000
vt 1.000000 0.000000
s 0
usemtl SVGMat.003
f 9/5/7 11/6/7 12/7/7 10/8/7
f 14/5/8 15/8/8 16/7/8 13/6/8
f 10/8/9 12/7/9 16/7/9 15/8/9
f 11/6/10 9/5/10 14/5/10 13/6/10
f 12/7/11 11/6/11 13/6/11 16/7/11
f 9/5/12 10/8/12 15/8/12 14/5/12
