# Blender 3.6.4
# www.blender.org
mtllib estadio_ultra.mtl
o Cube
v -56.385406 20.960398 -2.692825
v -56.385406 20.867437 -2.692825
v -57.101830 20.867437 -3.384825
v -57.101830 20.960398 -3.384825
v -56.385406 20.960398 -3.384825
v -56.385406 20.867437 -3.384825
v -56.445370 20.960398 -2.630745
v -56.445370 20.867437 -2.630745
v -57.161793 20.867437 -3.322746
v -57.161793 20.960398 -3.322746
vn -0.0000 1.0000 -0.0000
vn -0.7193 -0.0000 -0.6947
vn 1.0000 -0.0000 -0.0000
vn -0.0000 -1.0000 -0.0000
vn -0.0000 -0.0000 -1.0000
vn -0.6947 -0.0000 0.7193
vn 0.7193 -0.0000 0.6947
vt 0.625000 1.000000
vt 0.625000 0.750000
vt 0.875000 0.500000
vt 0.625000 0.500000
vt 0.375000 0.750000
vt 0.375000 1.000000
vt 0.875000 0.750000
s 0
f 1/1/1 5/2/1 4/3/1
f 4/3/2 3/4/2 9/4/2 10/3/2
f 6/5/3 5/2/3 1/1/3 2/6/3
f 3/4/4 6/2/4 2/6/4
f 3/4/5 4/3/5 5/7/5 6/2/5
f 10/3/6 9/4/6 8/6/6 7/1/6
f 3/4/4 2/6/4 8/6/4 9/4/4
f 2/6/7 1/1/7 7/1/7 8/6/7
f 1/1/1 4/3/1 10/3/1 7/1/1
